<svg width="208" height="34" viewBox="0 0 208 34" fill="none" xmlns="http://www.w3.org/2000/svg">
<path fill-rule="evenodd" clip-rule="evenodd" d="M18.9338 3.25757C21.0135 5.34048 22.1832 8.16462 22.1863 11.1103C25.1284 11.1103 27.95 12.2808 30.0304 14.3644C32.1108 16.448 33.2795 19.274 33.2795 22.2206C33.2795 25.1672 32.1108 27.9932 30.0304 30.0768C27.95 32.1603 25.1284 33.3309 22.1863 33.3309H0V0H11.0932C14.0343 0.00311218 16.8541 1.17466 18.9338 3.25757ZM11.0932 2.77463H2.77036L2.74688 14.8784C2.85011 14.778 2.94889 14.6775 3.0462 14.5786C3.14255 14.4806 3.23746 14.3841 3.33382 14.2905C5.39963 12.2461 8.18894 11.1028 11.0932 11.1103H19.3984V10.6106C19.2685 8.49164 18.3374 6.50183 16.7945 5.0461C15.2516 3.59037 13.2129 2.77812 11.0932 2.77463ZM15.8965 17.9106C17.3013 16.9151 18.3645 15.509 18.9406 13.8849H11.0932C9.3719 13.8868 7.69342 14.4224 6.2883 15.4181C4.88318 16.4139 3.82035 17.8209 3.24578 19.446H11.0932C12.814 19.4424 14.4917 18.9061 15.8965 17.9106ZM2.77036 30.568H22.1863C24.3945 30.5898 26.5208 29.7322 28.0976 28.1839C29.6744 26.6355 30.5725 24.5232 30.5943 22.3117C30.6161 20.1002 29.7598 17.9705 28.2138 16.3913C26.6678 14.8121 24.5588 13.9126 22.3507 13.8908H21.8342C21.5986 14.7973 21.2495 15.6703 20.7953 16.4891C19.8354 18.2242 18.4296 19.6705 16.7237 20.6783C15.0177 21.6861 13.0737 22.2186 11.0932 22.2206H2.77036V30.568Z" fill="white"/>
<path fill-rule="evenodd" clip-rule="evenodd" d="M66.3947 9.18795C63.9061 9.18795 61.6346 10.5106 59.8972 12.0331V4.16774H58.2303V23.8959H59.4629L59.7916 21.2858C61.5524 22.826 63.8532 24.1369 66.3947 24.1369C69.6228 24.1369 72.3991 21.6562 72.3991 16.6654C72.3991 11.6745 69.6228 9.18795 66.3947 9.18795ZM66.3947 22.585C63.953 22.585 61.7989 21.1153 59.8972 19.3459V13.8437C61.7989 12.1566 63.953 10.7457 66.3947 10.7457C68.7014 10.7457 70.7028 12.6856 70.7028 16.6654C70.7028 20.6451 68.7014 22.585 66.3947 22.585Z" fill="white"/>
<path d="M78.2626 4.16774H76.6016V6.97764H78.2626V4.16774Z" fill="white"/>
<path d="M78.2626 9.42908H76.6016V23.9019H78.2626V9.42908Z" fill="white"/>
<path fill-rule="evenodd" clip-rule="evenodd" d="M89.8899 9.18797C86.2274 9.18797 82.471 11.6687 82.471 16.6654C82.471 21.6621 86.2274 24.1369 89.8899 24.1369C93.5524 24.1369 97.3089 21.6562 97.3089 16.6654C97.3089 11.6746 93.5524 9.18797 89.8899 9.18797ZM89.8899 22.585C87.0844 22.585 84.1907 20.6098 84.1907 16.6654C84.1907 12.7209 87.0844 10.7458 89.8899 10.7458C92.6955 10.7458 95.5833 12.715 95.5833 16.6654C95.5833 20.6157 92.6896 22.585 89.8899 22.585Z" fill="white"/>
<path fill-rule="evenodd" clip-rule="evenodd" d="M109.723 9.18797C107.187 9.18797 104.88 10.5577 103.131 12.1272L102.791 9.40547H101.541V29.163H103.208V21.374C104.968 22.873 107.216 24.1369 109.705 24.1369C112.939 24.1369 115.709 21.6562 115.709 16.6654C115.709 11.6746 112.957 9.18797 109.723 9.18797ZM109.723 22.585C107.287 22.585 105.127 21.1154 103.225 19.346V13.8437C105.127 12.1566 107.287 10.7458 109.723 10.7458C112.029 10.7458 114.031 12.6857 114.031 16.6654C114.031 20.6451 112.029 22.585 109.723 22.585Z" fill="white"/>
<path d="M128.364 9.18795C125.834 9.18795 123.668 10.4577 121.866 12.0096V4.16774H120.205V23.8959H121.866V13.8378C123.874 12.0272 125.975 10.7457 128.364 10.7457C130.553 10.7457 132.032 12.0272 132.032 14.602V23.8959H133.693V14.602C133.693 10.9809 131.539 9.18795 128.364 9.18795Z" fill="white"/>
<path d="M157.558 12.1215L157.218 9.40564H155.991V23.8961H157.652V13.8615C159.161 12.192 160.792 10.7459 162.858 10.7459C163.464 10.7407 164.064 10.8629 164.619 11.1045L165.265 9.57612C164.579 9.34816 163.863 9.22721 163.14 9.21753C160.88 9.21753 159.12 10.4755 157.558 12.1215Z" fill="white"/>
<path d="M185.767 9.18797C183.507 9.18797 181.441 10.5577 179.897 12.1919C179.146 10.1873 177.391 9.18797 175.202 9.18797C173.012 9.18797 171.128 10.4871 169.614 12.0214L169.262 9.40547H168.029V23.8959H169.696V13.9025C171.111 12.2506 173.142 10.7693 175.178 10.7693C177.215 10.7693 178.624 11.9038 178.624 14.8842V23.8959H180.291V14.602C180.291 14.361 180.29 14.1376 180.261 13.9143C181.676 12.2448 183.724 10.7458 185.767 10.7458C187.809 10.7458 189.218 11.8803 189.218 14.8607V23.8959H190.879V14.602C190.879 10.9809 188.725 9.18797 185.767 9.18797Z" fill="white"/>
<path fill-rule="evenodd" clip-rule="evenodd" d="M145.274 9.18797C142.38 9.18797 140.502 10.1462 138.53 11.3689L139.357 12.6563C141.576 11.2807 142.838 10.6811 145.227 10.6811C147.416 10.6811 149.141 11.8215 149.141 14.99V16.8358C147.486 15.7047 145.54 15.0741 143.536 15.0194C140.455 15.0194 137.714 16.6948 137.714 19.6516C137.714 22.6085 139.962 24.1369 142.826 24.1369C145.42 24.1369 147.522 22.779 149.224 21.1448L149.57 23.8959H150.803V14.602C150.785 10.9809 148.443 9.18797 145.274 9.18797ZM143.149 22.6438C141.083 22.6438 139.392 21.6562 139.392 19.6516C139.392 17.6471 140.995 16.5125 143.501 16.5125C145.523 16.5649 147.481 17.2402 149.106 18.4465V19.5341C147.322 21.2447 145.356 22.6438 143.149 22.6438Z" fill="white"/>
<path fill-rule="evenodd" clip-rule="evenodd" d="M202.459 9.18797C199.566 9.18797 197.687 10.1462 195.715 11.3689L196.549 12.6563C198.762 11.2807 200.023 10.6811 202.418 10.6811C204.607 10.6811 206.333 11.8215 206.333 14.99V16.8358C204.679 15.7057 202.735 15.0753 200.734 15.0194C197.652 15.0194 194.911 16.6948 194.911 19.6516C194.911 22.6085 197.159 24.1369 200.023 24.1369C202.618 24.1369 204.719 22.779 206.421 21.1448L206.767 23.8959H208V14.602C207.971 10.9809 205.629 9.18797 202.459 9.18797ZM200.335 22.6438C198.269 22.6438 196.578 21.6562 196.578 19.6516C196.578 17.6471 198.18 16.5125 200.687 16.5125C202.709 16.5638 204.667 17.2392 206.292 18.4465V19.5341C204.508 21.2447 202.541 22.6438 200.335 22.6438Z" fill="white"/>
</svg>
