<svg width="140" height="36" viewBox="0 0 140 36" fill="none" xmlns="http://www.w3.org/2000/svg">
<path fill-rule="evenodd" clip-rule="evenodd" d="M47.4742 26.6117V15.6222L59.2402 26.8059V9.38749H56.426V20.377L44.6602 9.19336V26.6117H47.4742ZM107.2 9.38743H117.414V12.153H110.014V16.5197H115.958V19.2368H110.014V23.8461H117.414V26.6117H107.2V9.38743ZM71.9519 20.5469C71.9519 18.412 70.4477 16.8351 68.41 16.8351C66.3236 16.8351 64.8681 18.412 64.8681 20.5469C64.8681 22.6816 66.3236 24.2585 68.41 24.2585C70.4477 24.2585 71.9519 22.6816 71.9519 20.5469ZM62.1266 20.5469C62.1266 17.0049 64.7952 14.2878 68.41 14.2878C72.0003 14.2878 74.6931 17.0049 74.6931 20.5469C74.6931 24.0887 72.0003 26.8058 68.41 26.8058C64.7952 26.8058 62.1266 24.0887 62.1266 20.5469ZM74.8629 14.4819H77.8711L81.51 21.6142L85.1004 14.4819H88.1571L81.51 26.8059L74.8629 14.4819ZM97.7639 18.4847V22.6089C97.1089 23.6034 95.8959 24.2584 94.5374 24.2584C92.4753 24.2584 91.0198 22.6817 91.0198 20.5469C91.0198 18.4119 92.4753 16.8351 94.5374 16.8351C95.8959 16.8351 97.1089 17.4901 97.7639 18.4847ZM94.5131 26.8059C95.7989 26.8059 96.9149 26.4176 97.7639 25.7383V26.6116H100.432V14.4819H97.7639V15.3796C96.9149 14.7004 95.7989 14.2878 94.5131 14.2878C90.9227 14.2878 88.2785 17.0048 88.2785 20.5469C88.2785 24.0888 90.9227 26.8059 94.5131 26.8059ZM122.702 14.4819H120.034V26.6117H122.702V18.4605C123.26 17.4173 124.231 17.0048 125.371 17.0048C125.929 17.0048 126.365 17.0535 126.705 17.1747V14.3849C126.438 14.3364 126.147 14.3122 125.832 14.3122C124.497 14.3122 123.454 14.7731 122.702 15.6706V14.4819ZM137.33 22.6089V18.4847C136.675 17.4901 135.462 16.8351 134.104 16.8351C132.042 16.8351 130.586 18.4119 130.586 20.5469C130.586 22.6817 132.042 24.2584 134.104 24.2584C135.462 24.2584 136.675 23.6034 137.33 22.6089ZM137.33 25.7383C136.481 26.4176 135.365 26.8059 134.08 26.8059C130.489 26.8059 127.845 24.0888 127.845 20.5469C127.845 17.0048 130.489 14.2878 134.08 14.2878C135.365 14.2878 136.481 14.7004 137.33 15.3796V14.4819H139.999V26.6116H137.33V25.7383Z" fill="#1C1C1E"/>
<path d="M17.2227 17.9987C17.2227 27.5113 24.934 35.2227 34.4466 35.2227V0.774666C34.4466 10.2873 26.7353 17.9987 17.2227 17.9987Z" fill="#3783E1"/>
<path d="M17.224 17.9987C7.71131 17.9987 0 25.71 0 35.2227V0.774666C9.51267 0.774666 17.224 8.48598 17.224 17.9987Z" fill="#F5C507"/>
</svg>
