<?xml version="1.0" encoding="utf-8"?>
<svg preserveAspectRatio="xMidYMid meet" data-bbox="0 0 478.2 195.4" viewBox="0 0 478.2 195.4" xmlns="http://www.w3.org/2000/svg" data-type="color" role="presentation" aria-hidden="true" aria-label="">
	<g>
		<path fill="#ffe000" d="M201.7 131.2h24.7v-24.7h-24.7V81.8H248V57.1h-71v125.8h77.1v-24.7h-52.4z" data-color="1"></path>
		<path fill="#ffe000" d="M308.3 0h-24.7v182.9H333v-24.7h-24.7z" data-color="1"></path>
		<path d="m125.5 160.5-4.3-4.3c7.3-10.6 11.5-23.5 11.5-37.4 0-36.6-29.7-66.4-66.4-66.4C29.7 52.5 0 82.2 0 118.8s29.7 66.4 66.4 66.4c13.9 0 26.7-4.3 37.4-11.5l21.7 21.7 34.9-34.9-17.5-17.5zm-59.1 0c-23 0-41.7-18.7-41.7-41.7s18.7-41.7 41.7-41.7 41.7 18.7 41.7 41.7c-.1 23-18.7 41.7-41.7 41.7" fill="#ffe000" data-color="1"></path>
		<path d="M453.5 57.1v10.1c-11.4-9.2-25.9-14.7-41.7-14.7-36.6 0-66.4 29.7-66.4 66.4 0 36.6 29.7 66.4 66.4 66.4 15.8 0 30.3-5.5 41.7-14.8v12.4h24.7V57.1zm-41.7 103.4c-23 0-41.7-18.7-41.7-41.7s18.7-41.7 41.7-41.7 41.7 18.7 41.7 41.7-18.7 41.7-41.7 41.7" fill="#ffe000" data-color="1"></path>
	</g>
</svg>