<?xml version="1.0" encoding="utf-8"?>
<!-- Generator: Adobe Illustrator 25.2.3, SVG Export Plug-In . SVG Version: 6.00 Build 0)  -->
<svg version="1.1" id="Слой_1" xmlns="http://www.w3.org/2000/svg" xmlns:xlink="http://www.w3.org/1999/xlink" x="0px" y="0px"
	 viewBox="0 0 1460 1460" style="enable-background:new 0 0 1460 1460;" preserveAspectRatio="xMidYMid slice" xml:space="preserve" width="200" height="100">
<style type="text/css">
	.st0{fill:#020201;}
	.st1{fill:#FCD604;}
	.st2{fill:#0971E9;}
</style>
<g>
	<g>
		<path class="st0" d="M354.2,621.7c0-20,3.9-37.5,11.6-52.6c7.9-15,18.4-26.6,31.4-34.7c13.2-8.1,27.5-12.1,42.9-12.1
			c11.2,0,20,1.3,26.4,3.9c6.4,2.6,11.4,5.2,14.9,8c3.5,2.6,6,4.3,7.4,5.2l-8.8-19.5l1.4-1.7h27.5l19.5,78.2l-20.4,6.9
			c-7.7-16.9-16.9-30.2-27.5-39.9c-10.5-9.9-23.2-14.9-38.3-14.9c-10.6,0-20.2,3.1-28.6,9.4c-8.3,6.2-14.8,15-19.5,26.1
			c-4.6,11-6.9,23.6-6.9,37.7c0,14.7,2.5,27.8,7.4,39.4c5,11.4,11.8,20.3,20.6,26.7c9,6.2,19.3,9.4,30.8,9.4
			c16.7,0,30.7-6.1,42.1-18.2c11.4-12.1,20.2-26.7,26.4-43.8l22.8,7.2l-22.6,85.1h-26.4l-1.4-1.7l9.4-20.6c-1.3,0.7-4.3,2.8-9.1,6.1
			c-4.6,3.3-10.6,6.1-18.2,8.5c-7.5,2.4-16,3.6-25.3,3.6c-17.1,0-32.4-4.2-46-12.7c-13.6-8.6-24.3-20.6-32.2-36.1
			C358,659.1,354.2,641.5,354.2,621.7z"/>
		<path class="st0" d="M577.7,716.4c0.7-15.4,1.1-30.1,1.1-44v-69.9c-4,0-11.6,1.4-22.6,4.1l-0.8-1.7l5.2-23.4h118.6
			c9.4,0,17-0.5,22.8-1.4l0.6,1.9c-0.9,10.8-1.4,26.2-1.4,46.2v69.9c2.6,0,6.6-0.6,12.1-1.9c5.7-1.3,9.1-2,10.2-2.2l1.1,1.7
			l-5.5,23.4h-46v-2.8c0.7-11.6,1.1-26.2,1.1-44v-67.4h-68.8v67.4c0,13.9,0.4,28.6,1.1,44v2.8h-28.9V716.4z"/>
		<path class="st0" d="M760.8,716.4c0.7-15.4,1.1-30.1,1.1-44v-69.9c-4,0-11.6,1.4-22.6,4.1l-0.8-1.7l5.2-23.4h22.8
			c9.5,0,17.3-0.5,23.4-1.4l0.3,1.9c-0.9,14.3-1.4,29.7-1.4,46.2v69.9c2.2,0,6.1-0.5,11.6-1.7c5.7-1.3,9.3-2.1,10.7-2.5l0.8,1.7
			l-5.2,23.4h-46V716.4z M793.5,514.1l-20.4,49.5h-2.8L750,514.1H793.5z"/>
		<path class="st0" d="M848.4,716.4c0.7-15.4,1.1-30.1,1.1-44v-69.9c-4,0-11.6,1.4-22.6,4.1l-0.8-1.7l5.2-23.4h77.9
			c16,0,28.5,3.2,37.7,9.6c9.2,6.2,13.8,15,13.8,26.1c0,7.2-2.1,13.5-6.3,19c-4,5.3-9.9,9.5-17.6,12.4c9.4,2.6,16.6,6.9,21.7,12.9
			c5.3,5.9,8,13,8,21.5c0,11.2-4.8,20-14.3,26.4c-9.4,6.4-22.2,9.6-38.5,9.6h-65.2V716.4z M905.7,639.3c8.3,0,14.8-1.7,19.5-5
			c5-3.3,7.4-7.7,7.4-13.2s-2.5-9.9-7.4-13.2c-4.8-3.5-11.3-5.2-19.5-5.2h-29.7v36.6H905.7z M910.9,697.9c8.6,0,15.3-1.7,20.1-5.2
			c5-3.5,7.4-8.3,7.4-14.3c0-5.1-2.7-9.4-8-12.7c-5.3-3.3-11.8-5-19.5-5h-35v37.2H910.9z"/>
	</g>
	<g>
		<path class="st0" d="M350.3,925.3l1.4-0.6c4.6,2,11.3,3.9,20.1,5.8c6.2-18.7,11.1-38.5,14.6-59.5c3.5-20.9,5.2-41.1,5.2-60.6
			v-23.1c-2.9,0.2-11.1,1.7-24.5,4.4l-1.1-1.7l6.1-25.3h147.8v2.8c-0.9,19.3-1.4,33.9-1.4,44v87.5v32.2h3l11.8-1.9l6.1-0.8l7.2,66.3
			l-25.9,3.6l-4.4-18.4c-1.8-8.1-5-13.9-9.6-17.3c-4.6-3.5-10.8-5.2-18.7-5.2h-87.3c-9,0-15.7,1.3-20.1,3.9
			c-4.2,2.6-7.5,7.6-9.9,15.1l-6.9,22l-23.7-4.4L350.3,925.3z M486.8,791.3h-61.4c-2.4,26.6-5.7,51.2-9.9,73.8
			c-4.2,22.4-9.7,44.3-16.5,65.8h14h73.8V791.3z"/>
		<path class="st0" d="M584.7,954.8c0.7-15.4,1.1-30.1,1.1-44v-69.9c-4,0-11.6,1.4-22.6,4.1l-0.8-1.7l5.2-23.4h22.8
			c9.5,0,17.3-0.5,23.4-1.4l0.3,1.9c-0.9,14.3-1.4,29.7-1.4,46.2v69.9c2.2,0,6.1-0.6,11.6-1.7c5.7-1.3,9.3-2.1,10.7-2.5l0.8,1.7
			l-5.2,23.4h-46V954.8z M617.4,752.4L597.1,802h-2.8l-20.4-49.5H617.4z"/>
		<path class="st0" d="M643.2,954.5c1.1-1.1,4.8-4.8,11-11c6.2-6.2,11.6-12.2,16-17.9l19.5-25.9c-18.9-7-28.4-19.5-28.4-37.4
			c0-13.4,5-23.8,15.1-31.1c10.3-7.5,24.9-11.3,43.8-11.3h31.1c3.7,0,7.8-0.1,12.4-0.3c4.6-0.4,8.1-0.7,10.5-1.1l0.6,1.9
			c-0.9,10.8-1.4,26.2-1.4,46.2v69.9c2.6,0,6.6-0.6,12.1-1.9c5.7-1.3,9.1-2,10.2-2.2l1.1,1.7l-5.5,23.4h-46v-2.8
			c0.7-15.4,1.1-30.1,1.1-44v-6.1h-20.1c-4.6,0-8-0.1-10.2-0.3l-26.7,35c2.2,0,7.3-0.9,15.4-2.8c5.1-1.1,8.4-1.7,9.9-1.9l0.5,1.4
			l-6.1,21.5h-65.8L643.2,954.5z M746.4,840.5h-25.9c-10.1,0-17.9,1.9-23.4,5.8c-5.5,3.7-8.3,9-8.3,16c0,6.8,2.8,12.1,8.3,16
			c5.5,3.7,13.3,5.5,23.4,5.5h25.9V840.5z"/>
	</g>
	<g>
		<path class="st1" d="M840.1,756.1h174.6v27c0,96.5-78.2,174.6-174.6,174.6V756.1z"/>
		<path class="st2" d="M1014.7,554.4c96.5,0,174.6,78.2,174.6,174.6v27h-174.6V554.4z"/>
	</g>
</g>
</svg>
